<?xml version="1.0" encoding="UTF-8" standalone="no"?>
<svg
   viewBox="64 64 896 896"
   focusable="false"
   data-icon="line"
   width="1em"
   height="1em"
   fill="currentColor"
   aria-hidden="true"
   version="1.1"
   id="svg1"
   sodipodi:docname="linewidth.svg"
   inkscape:version="1.4 (86a8ad7, 2024-10-11)"
   xmlns:inkscape="http://www.inkscape.org/namespaces/inkscape"
   xmlns:sodipodi="http://sodipodi.sourceforge.net/DTD/sodipodi-0.dtd"
   xmlns="http://www.w3.org/2000/svg"
   xmlns:svg="http://www.w3.org/2000/svg">

  <path
     d="M 904,471.16619 H 120 c -4.4,0 -8,4.89479 -8,10.87728 v 76.14098 c 0,5.9825 3.6,10.87728 8,10.87728 h 784 c 4.4,0 8,-4.89478 8,-10.87728 v -76.14098 c 0,-5.98249 -3.6,-10.87728 -8,-10.87728 z"
     id="path1"
     style="stroke-width:1.16605" />
  <path
     d="m 902.1893,689.82717 h -784 c -4.4,0 -8,7.77993 -8,17.28872 v 121.02114 c 0,9.50881 3.6,17.28875 8,17.28875 h 784 c 4.4,0 8,-7.77994 8,-17.28875 V 707.11589 c 0,-9.50879 -3.6,-17.28872 -8,-17.28872 z"
     id="path1-5"
     style="stroke-width:1.47007" />
  <path
     d="m 905.51029,282.87084 h -784 c -4.4,0 -8,2.02128 -8,4.49172 v 31.44201 c 0,2.47045 3.6,4.49172 8,4.49172 h 784 c 4.4,0 8,-2.02127 8,-4.49172 v -31.44201 c 0,-2.47044 -3.6,-4.49172 -8,-4.49172 z"
     id="path1-8"
     style="stroke-width:0.749309" />
</svg>
